<?xml version="1.0" encoding="utf-8"?>
<svg id="master-artboard" viewBox="0 0 1084.981201171875 676.4135131835938" version="1.1" xmlns="http://www.w3.org/2000/svg" x="0px" y="0px" style="enable-background:new 0 0 1400 980;" width="1084.981201171875px" height="676.4135131835938px"><rect id="ee-background" x="0" y="0" width="1084.981201171875" height="676.4135131835938" style="fill: white; fill-opacity: 0; pointer-events: none;"/>



<g transform="matrix(1, 0, 0, 1, -153.69863891601562, -273.10089111328125)">
		<g>
			<path class="st2" d="M1189.7,920.4H207.8c-21.5,0-39-17.5-39-39v-502c0-21.5,17.5-39,39-39h981.9c21.5,0,39,17.5,39,39v502&#10;&#9;&#9;&#9;&#9;C1228.7,902.9,1211.3,920.4,1189.7,920.4z" style="fill: rgb(218, 219, 220);"/>
		</g>
		<g>
			<path class="st3" d="M1181.9,913.2H200c-21.5,0-39-17.5-39-39v-502c0-21.5,17.5-39,39-39h981.9c21.5,0,39,17.5,39,39v502&#10;&#9;&#9;&#9;&#9;C1220.9,895.7,1203.4,913.2,1181.9,913.2z" style="fill: rgb(36, 182, 185);"/>
		</g>
		<g>
			<path class="st4" d="M1176.1,909.2H210.8c-1.1,0-2-0.9-2-2s0.9-2,2-2h965.3c20,0,36.4-16.2,36.4-36.2V378.2c0-1.1,0.9-2,2-2&#10;&#9;&#9;&#9;&#9;s2,0.9,2,2V869C1216.4,891.2,1198.3,909.2,1176.1,909.2z" style="fill: rgb(200, 223, 216);"/>
		</g>
	</g>
<g transform="matrix(1, 0, 0, 1, -153.69863891601562, -273.10089111328125)">
		<path class="st2" d="M399.5,548.9c-2.5,0-4.5,2-4.5,4.5v74l0,0.3c0,2.5-2,4.5-4.5,4.5c-2.5,0-5.1-2-5.1-4.5V553&#10;&#9;&#9;&#9;c0-2.5-2-4.5-4.5-4.5c-2.4,0-4.4,1.9-4.5,4.4v0.1v66v8.6c0,2.5-2,4.5-4.5,4.5c-2.5,0-4.6-2-4.6-4.5V553c0-2.5-2-4.5-4.5-4.5&#10;&#9;&#9;&#9;c-2.5,0-4.9,2-4.9,4.5v74.7c0,2.5-2,4.5-4.5,4.5c-2.5,0-4.5-2-4.5-4.5v-10.9c0,0,0,0,0,0v-63.4c0-0.1,0-0.1,0-0.2&#10;&#9;&#9;&#9;c-0.1-2.4-2.1-4.3-4.5-4.3c-2.4,0-4.3,1.8-4.5,4.1c0,0.3-0.1,83.6-0.1,85.1c0,16.4,15.1,15.3,19,15.3v85c-1.2,0.8-2.2,1.8-3.1,3.1&#10;&#9;&#9;&#9;c0,0,0,0,0,0c-0.4,0.6-0.7,1.3-1,2c0,0,0,0.1,0,0.1c-0.1,0.3-0.2,0.6-0.3,1c0,0.1-0.1,0.2-0.1,0.3c-0.1,0.3-0.2,0.7-0.3,1&#10;&#9;&#9;&#9;c0,0.1,0,0.2-0.1,0.2c-0.1,0.4-0.2,0.9-0.2,1.3c0,0.1,0,0.2,0,0.2c-0.1,0.4-0.1,0.8-0.1,1.2c0,0.2,0,0.3,0,0.5&#10;&#9;&#9;&#9;c0,0.4-0.1,0.7-0.1,1.1c0,0.2,0,0.3,0,0.5c0,0.6,0,1.1,0,1.7v100.8c0,16.2,8.3,22.5,18.5,22.5c7.3,0,13.5-3.2,16.6-10.7&#10;&#9;&#9;&#9;c0-0.1,0-0.1,0.1-0.2c1.2-3.1,1.9-6.9,1.9-11.6V752.9c0-8.1-2.1-12.2-5.4-14.4v-85.1c4.4,0,18.9,1.2,18.9-15.3&#10;&#9;&#9;&#9;c0-2.3,0-84.8,0-84.8C403.9,552.1,402.8,548.9,399.5,548.9z" style="fill: rgb(218, 219, 220);"/>
	</g><g transform="matrix(1, 0, 0, 1, -153.69863891601562, -273.10089111328125)">
			<g>
				<path class="st5" d="M344.4,613.5v-63.4c0-0.1,0-0.1,0-0.2L344.4,613.5C344.4,613.5,344.4,613.5,344.4,613.5z" style="fill: rgb(255, 255, 255);"/>
			</g>
			<g>
				<path class="st5" d="M371.9,549.8v66l0,0v-66.1C371.9,549.7,371.9,549.8,371.9,549.8z" style="fill: rgb(255, 255, 255);"/>
			</g>
			<g>
				<path class="st6" d="M399.5,550.2c0-1.3-1.1-4.5-4.5-4.5c-2.5,0-4.5,2-4.5,4.5v74l0,0.3c0,2.5-2,4.5-4.5,4.5&#10;&#9;&#9;&#9;&#9;&#9;c-2.5,0-5.1-2-5.1-4.5v-74.6c0-2.5-2-4.5-4.5-4.5c-2.4,0-4.4,1.9-4.5,4.4v74.7c0,2.5-2,4.5-4.5,4.5c-2.5,0-4.6-2-4.6-4.5v-74.6&#10;&#9;&#9;&#9;&#9;&#9;c0-2.5-2-4.5-4.5-4.5c-2.5,0-4.9,2-4.9,4.5v74.7c0,2.5-2,4.5-4.5,4.5c-2.5,0-4.5-2-4.5-4.5V550c-0.1-2.4-2.1-4.3-4.5-4.3&#10;&#9;&#9;&#9;&#9;&#9;c-2.4,0-4.3,1.8-4.5,4.1c0,0.3-0.1,83.6-0.1,85.1c0,16.4,15.1,15.3,19,15.3v99.1h0.8h24.7h0.7v-99.1c4.4,0,18.9,1.2,18.9-15.3&#10;&#9;&#9;&#9;&#9;&#9;C399.5,632.6,399.5,550.2,399.5,550.2z" style="fill: rgb(236, 237, 229);"/>
			</g>
		</g><path class="st7" d="M385.9,850.5c0,16.2-8.3,22.5-18.5,22.5c-10.2,0-18.5-6.3-18.5-22.5V749.7c0-16.2,8.3-16.6,18.5-16.6&#10;&#9;&#9;&#9;&#9;c10.3,0,18.5,0.5,18.5,16.6V850.5z" style="fill: rgb(229, 35, 49);" transform="matrix(1, 0, 0, 1, -153.69863891601562, -273.10089111328125)"/><path class="st8" d="M375.7,863c-10.2,0-18.5-6.3-18.5-22.5V739.8c0-2.3,0.2-4.2,0.5-5.9c-5.3,1.4-8.7,5.3-8.7,15.8v100.8&#10;&#9;&#9;&#9;&#9;c0,16.2,8.3,22.5,18.5,22.5c6.1,0,14.3-2.7,17.2-12.6C382.6,861.6,378,863,375.7,863z" style="fill: rgb(202, 32, 43);" transform="matrix(1, 0, 0, 1, -153.69863891601562, -273.10089111328125)"/><path class="st5" d="M375.9,651.1c0-0.5,0.4-0.9,0.9-0.9l0,0c0.5,0,0.9,0.4,0.9,0.9v74c0,0.5-0.4,0.9-0.9,0.9l0,0&#10;&#9;&#9;&#9;&#9;c-0.5,0-0.9-0.4-0.9-0.9V651.1z" style="fill: rgb(255, 255, 255);" transform="matrix(1, 0, 0, 1, -153.69863891601562, -273.10089111328125)"/><path class="st5" d="M396,550.7c0-0.5,0.4-0.9,0.9-0.9l0,0c0.4,0,0.9,0.4,0.9,0.9v71.6c0,0.5-0.4,0.9-0.9,0.9l0,0&#10;&#9;&#9;&#9;&#9;c-0.5,0-0.9-0.4-0.9-0.9V550.7z" style="fill: rgb(255, 255, 255);" transform="matrix(1, 0, 0, 1, -153.69863891601562, -273.10089111328125)"/><path class="st5" d="M377.7,550.7c0-0.5,0.4-0.9,0.9-0.9l0,0c0.5,0,0.9,0.4,0.9,0.9v71.6c0,0.5-0.4,0.9-0.9,0.9l0,0&#10;&#9;&#9;&#9;&#9;c-0.5,0-0.9-0.4-0.9-0.9V550.7z" style="fill: rgb(255, 255, 255);" transform="matrix(1, 0, 0, 1, -153.69863891601562, -273.10089111328125)"/><path class="st5" d="M359.4,550.7c0-0.5,0.4-0.9,0.9-0.9l0,0c0.5,0,0.9,0.4,0.9,0.9v71.6c0,0.5-0.4,0.9-0.9,0.9l0,0&#10;&#9;&#9;&#9;&#9;c-0.5,0-0.9-0.4-0.9-0.9V550.7z" style="fill: rgb(255, 255, 255);" transform="matrix(1, 0, 0, 1, -153.69863891601562, -273.10089111328125)"/><path class="st5" d="M341,550.7c0-0.5,0.4-0.9,0.9-0.9l0,0c0.5,0,0.9,0.4,0.9,0.9v71.6c0,0.5-0.4,0.9-0.9,0.9l0,0&#10;&#9;&#9;&#9;&#9;c-0.5,0-0.9-0.4-0.9-0.9V550.7z" style="fill: rgb(255, 255, 255);" transform="matrix(1, 0, 0, 1, -153.69863891601562, -273.10089111328125)"/>
<g transform="matrix(1, 0, 0, 1, -153.69863891601562, -273.10089111328125)">
		<path class="st2" d="M1054.5,853.9V753.1c0-8.1-2.1-12.2-5.4-14.4V549.1h0c-20.2,0-36.5,24.2-36.5,44.3v96.1&#10;&#9;&#9;&#9;c0,7.6,3.9,14.7,10.3,18.7v0v30.4c-1.2,0.8-2.2,1.8-3.1,3.1c0,0,0,0,0,0c-0.4,0.6-0.7,1.3-1,2c0,0,0,0.1,0,0.1&#10;&#9;&#9;&#9;c-0.1,0.3-0.2,0.6-0.3,1c0,0.1-0.1,0.2-0.1,0.3c-0.1,0.3-0.2,0.7-0.3,1c0,0.1,0,0.2-0.1,0.2c-0.1,0.4-0.2,0.9-0.2,1.3&#10;&#9;&#9;&#9;c0,0.1,0,0.2,0,0.2c-0.1,0.4-0.1,0.8-0.1,1.2c0,0.2,0,0.3,0,0.5c0,0.4-0.1,0.7-0.1,1.1c0,0.2,0,0.3,0,0.5c0,0.6,0,1.1,0,1.7v100.8&#10;&#9;&#9;&#9;c0,16.2,8.3,22.5,18.5,22.5c7.3,0,13.5-3.2,16.6-10.7c0-0.1,0-0.1,0.1-0.2C1053.8,862.4,1054.5,858.5,1054.5,853.9z" style="fill: rgb(218, 219, 220);"/>
	</g><g transform="matrix(1, 0, 0, 1, -153.69863891601562, -273.10089111328125)">
			<g>
				<path class="st6" d="M1007.8,590v96.1c0,7.6,3.9,14.7,10.3,18.7l0,0v44.5h26.2V545.7l0,0C1024.2,545.7,1007.8,569.8,1007.8,590z&#10;&#9;&#9;&#9;&#9;&#9;" style="fill: rgb(236, 237, 229);"/>
			</g>
		</g><path class="st7" d="M1049.7,850.5c0,16.2-8.3,22.5-18.5,22.5c-10.2,0-18.5-6.3-18.5-22.5V749.7c0-16.2,8.3-16.6,18.5-16.6&#10;&#9;&#9;&#9;&#9;c10.3,0,18.5,0.5,18.5,16.6V850.5z" style="fill: rgb(229, 35, 49);" transform="matrix(1, 0, 0, 1, -153.69863891601562, -273.10089111328125)"/><path class="st8" d="M1039.4,863c-10.2,0-18.5-6.3-18.5-22.5V739.8c0-2.3,0.2-4.2,0.5-5.9c-5.3,1.4-8.7,5.3-8.7,15.8v100.8&#10;&#9;&#9;&#9;&#9;c0,16.2,8.3,22.5,18.5,22.5c6.1,0,14.3-2.7,17.2-12.6C1046.3,861.6,1041.8,863,1039.4,863z" style="fill: rgb(202, 32, 43);" transform="matrix(1, 0, 0, 1, -153.69863891601562, -273.10089111328125)"/><path class="st5" d="M1039.7,586.2V725c0,0.5,0.4,0.9,0.9,0.9c0.5,0,0.9-0.4,0.9-0.9V586.2H1039.7z" style="fill: rgb(255, 255, 255);" transform="matrix(1, 0, 0, 1, -153.69863891601562, -273.10089111328125)"/>
<g transform="matrix(1, 0, 0, 1, -153.69863891601562, -273.10089111328125)">
		<g>
			<path class="st2" d="M1199.1,410.5l-32-4.1c0.5-3.9,0.8-7.9,0.8-12c0-54.3-44-98.4-98.4-98.4c-54.3,0-98.4,44-98.4,98.4&#10;&#9;&#9;&#9;&#9;s44,98.4,98.4,98.4c42.2,0,78.2-26.6,92.1-63.9c0.6,0.2,1.2,0.3,1.8,0.4l32.7,4.2c6.3,0.8,12.1-3.7,13-10v0&#10;&#9;&#9;&#9;&#9;C1209.9,417.1,1205.4,411.3,1199.1,410.5z" style="fill: rgb(218, 219, 220);"/>
		</g>
		<g>
			<path class="st5" d="M1172.2,396l-32-4.1c0.5-3.9,0.8-7.9,0.8-12c0-54.3-44-98.4-98.4-98.4c-54.3,0-98.4,44-98.4,98.4&#10;&#9;&#9;&#9;&#9;s44,98.4,98.4,98.4c42.2,0,78.2-26.6,92.1-63.9c0.6,0.2,1.2,0.3,1.8,0.4l32.7,4.2c6.3,0.8,12.1-3.7,13-10v0&#10;&#9;&#9;&#9;&#9;C1183,402.6,1178.5,396.8,1172.2,396z" style="fill: rgb(255, 255, 255);"/>
		</g>
		<g>
			<path d="M 1126.399979 379.899994 A 83.800003 83.800003 0 0 1 1042.599976 463.699997 A 83.800003 83.800003 0 0 1 958.799973 379.899994 A 83.800003 83.800003 0 0 1 1042.599976 296.099991 A 83.800003 83.800003 0 0 1 1126.399979 379.899994 Z" class="st9" style="fill: rgb(87, 66, 38);"/>
		</g>
		<g>
			<path class="st10" d="M1040.6,443.5c-20.5,0-39.5-8.3-51.4-22.9c-11.4-14-16.7-31.7-14.8-49.7c1.8-18,10.6-34.2,24.6-45.6&#10;&#9;&#9;&#9;&#9;c11.5-9.3,25.9-13.6,40.6-12.1c14.7,1.5,28,8.7,37.3,20.1c7.7,9.4,11.2,21.3,10,33.3s-7.1,23-16.5,30.6&#10;&#9;&#9;&#9;&#9;c-7.8,6.3-17.6,9.3-27.5,8.2c-10-1-19-5.9-25.3-13.7c-5.3-6.5-7.7-14.6-6.8-22.9c0.9-8.3,4.9-15.8,11.3-21&#10;&#9;&#9;&#9;&#9;c11.2-9.1,27.7-7.4,36.8,3.8c3.7,4.6,5.4,10.3,4.8,16.2c-0.6,5.9-3.5,11.2-8,14.9c-2.5,2-6.2,1.7-8.3-0.8c-2-2.5-1.7-6.2,0.8-8.3&#10;&#9;&#9;&#9;&#9;c2.1-1.7,3.5-4.2,3.8-7c0.3-2.8-0.5-5.4-2.3-7.6c-2.4-3-5.9-4.8-9.7-5.2c-3.8-0.4-7.6,0.7-10.6,3.2c-4,3.3-6.6,7.9-7.1,13.1&#10;&#9;&#9;&#9;&#9;c-0.5,5.2,1,10.2,4.3,14.3c4.4,5.3,10.5,8.7,17.4,9.4c6.9,0.7,13.6-1.3,18.9-5.7c7-5.7,11.3-13.8,12.3-22.7&#10;&#9;&#9;&#9;&#9;c0.9-9-1.7-17.7-7.4-24.7c-7.4-9-17.8-14.7-29.4-15.9c-11.6-1.2-23,2.2-32,9.6c-11.6,9.4-18.8,22.8-20.4,37.7&#10;&#9;&#9;&#9;&#9;c-1.5,14.9,2.8,29.5,12.3,41.1c11.5,14.2,31.7,21,52.5,17.7c21.5-3.4,38.8-16.8,46.3-35.9c1.2-3,4.6-4.5,7.6-3.3&#10;&#9;&#9;&#9;&#9;c3,1.2,4.5,4.6,3.3,7.6c-9,23-29.7,39.2-55.4,43.2C1048.6,443.2,1044.6,443.5,1040.6,443.5z" style="fill: rgb(145, 89, 52);"/>
		</g>
	</g>
<g transform="matrix(1, 0, 0, 1, -153.69863891601562, -273.10089111328125)">
		<path class="st2" d="M520.5,413.4c0.1-0.2,0.1-0.3,0.2-0.5c1.3-4,2.1-8.1,2.8-12.3c4.3-25.6,3.7-52.1-1.7-77.5l-2.3-2.4&#10;&#9;&#9;&#9;c-10.6-5.9-22.9-5.8-35.1-3.3c-2.4-4.1-5.3-7.6-8.8-10.6c-7.8-4.4-17.4-2.9-26.2-1.2c-9.5,1.9-18.9,4.1-28.2,6.6&#10;&#9;&#9;&#9;c0,0-0.1-0.1-0.1-0.1l-4.8-1.6c-20.5-4.8-41.8,2.5-61.2,10.6c-29.2,12.2-58.3,27.3-78.8,51.4c-3.8,4.4-7.2,9.4-9.7,14.7&#10;&#9;&#9;&#9;c0,0,0,0,0,0c-1.1,2.4-2,5-2.6,7.5c0,0.1-0.1,0.3-0.1,0.4c-0.1,0.7-0.3,1.3-0.4,2c0,0.2-0.1,0.5-0.1,0.7c-0.1,0.6-0.1,1.2-0.2,1.7&#10;&#9;&#9;&#9;c0,0.3,0,0.6,0,0.8c0,0.6,0,1.2,0,1.7c0,0.3,0,0.5,0,0.8c0,0.2,0,0.5,0.1,0.7c-5.3,4.9-10.3,10.2-14.8,16&#10;&#9;&#9;&#9;c-4.7,6.1-8.9,12.9-11.2,20.2c0,0,0,0.1,0,0.1c-0.4,1.1-0.7,2.3-1,3.5c-2,8.8-1.1,18.5,4,25.9c0.5,0.7,1,1.4,1.6,2&#10;&#9;&#9;&#9;c-2.3,2.9-4.4,6-6.3,9.1c0,0,0,0,0,0c0,0,0,0,0,0c-0.4,0.7-0.8,1.4-1.2,2.1c0,0,0,0.1,0,0.1c-1.1,2.1-2.1,4.3-2.8,6.6&#10;&#9;&#9;&#9;c0,0.1-0.1,0.3-0.1,0.4c-0.2,0.6-0.3,1.1-0.5,1.7c-0.1,0.2-0.1,0.4-0.2,0.7c-0.1,0.5-0.2,1-0.3,1.5c0,0.3-0.1,0.5-0.1,0.8&#10;&#9;&#9;&#9;c-0.1,0.5-0.1,1-0.2,1.6c0,0.2,0,0.5-0.1,0.7c0,0.7-0.1,1.5-0.1,2.3c0,0,0,0,0,0c0,0.7,0.1,1.4,0.1,2.1c0.2,2.1,0.7,4.1,1.4,6&#10;&#9;&#9;&#9;c1.1,3.2,2.8,6.3,4.9,9c0.8,1.1,1.8,2.2,2.7,3.2c2.4,2.5,5.2,4.8,8.1,6.7c1.1,0.7,2.1,1.3,3.2,1.9c3.3,1.8,6.7,3.2,10.3,4.2&#10;&#9;&#9;&#9;c5.9,1.8,12.2,2.6,18.5,2.6c8.8,0,17.8-1.5,26.1-4.1c7.2-2.2,14.1-5.2,20.8-8.6c1.1-0.6,2.2-1.1,3.3-1.7c1.9-1,3.8-2.1,5.6-3.1&#10;&#9;&#9;&#9;c0.7,0.1,1.5,0.2,2.2,0.3c1.2,0.1,2.4,0.2,3.6,0.2c2.4,0,4.8-0.3,7.2-0.6c1.2-0.2,2.4-0.4,3.6-0.6c7.5-1.4,14.8-3.2,22.1-5.3&#10;&#9;&#9;&#9;c2.4,0.5,4.9,0.8,7.4,0.8c4.5,0,9-0.7,13.5-1.7c2.8-0.6,5.5-1.3,8.2-2.1c9.3-2.6,18.9-5.8,27.5-10.3c1-0.5,2-1.1,3-1.7&#10;&#9;&#9;&#9;c1.4-0.8,2.7-1.7,4.1-2.6c0.6-0.4,1.2-0.8,1.7-1.2c1.7-1.2,3.3-2.5,4.8-3.9c0.1-0.1,0.2-0.2,0.3-0.3c3.1-2.9,5.8-6.3,7.9-10.1&#10;&#9;&#9;&#9;c0.3-0.6,0.7-1.2,1-1.9c0.3-0.6,0.6-1.2,0.8-1.8c7.4-4.5,14.5-9.5,19.9-16.2c2.7-3.4,4.9-7.1,6.7-11c2.4-0.9,4.9-1.8,7.3-2.8&#10;&#9;&#9;&#9;c1.4-0.6,2.7-1.2,4.1-1.8c1.3-0.6,2.7-1.3,4-2c1.1-0.6,2.1-1.2,3.1-1.8c0.5-0.3,0.9-0.6,1.4-0.9c0.9-0.6,1.7-1.1,2.5-1.7&#10;&#9;&#9;&#9;c1.1-0.8,2.2-1.6,3.3-2.5c0.8-0.7,1.7-1.4,2.4-2.1c1.1-1,2.1-2.1,3.1-3.2c1-1.1,1.9-2.2,2.8-3.4c1.3-1.8,2.5-3.7,3.5-5.7&#10;&#9;&#9;&#9;c0.4-0.9,0.8-1.8,1.2-2.7c0.1-0.2,0.2-0.5,0.3-0.7C520,414.9,520.3,414.1,520.5,413.4z" style="fill: rgb(218, 219, 220);"/>
	</g><g transform="matrix(1, 0, 0, 1, -153.69863891601562, -273.10089111328125)">
			<path class="st11" d="M490,297.2c-16.6-9.2-37.2-3.9-55.1,2.4c-84.6,29.5-165.5,76.3-221.1,146.5c-6.8,8.6-13.5,18.4-13.3,29.3&#10;&#9;&#9;&#9;&#9;c0.3,11.1,7.9,21,17.3,26.9c16.9,10.8,39,10.6,58.1,4.6c19.2-6,36.2-17.2,53.3-27.7c31.5-19.5,64.3-37.6,99.6-48.7&#10;&#9;&#9;&#9;&#9;c11.3-3.6,23-6.5,33.7-11.6c10.7-5.1,20.8-12.7,26.1-23.4c2.9-5.7,4.3-12.1,5.3-18.4c4.3-25.6,3.7-52.1-1.7-77.5L490,297.2z" style="fill: rgb(242, 205, 117);"/>
		</g><path class="st12" d="M467.9,404.4c-10.7,5.1-22.4,8-33.7,11.6c-35.3,11.2-68.1,29.2-99.6,48.7c-17.1,10.6-34.1,21.8-53.3,27.7&#10;&#9;&#9;&#9;&#9;c-19.2,6-41.2,6.1-58.1-4.6c-9.4-6-17-15.8-17.3-26.9c0-1.3,0-2.6,0.2-3.9c-3.4,5.7-5.7,11.8-5.5,18.4c0.3,11.1,7.9,21,17.3,26.9&#10;&#9;&#9;&#9;&#9;c16.9,10.8,39,10.6,58.1,4.6c19.2-6,36.2-17.2,53.3-27.7c31.5-19.5,64.3-37.6,99.6-48.7c11.3-3.6,23-6.5,33.7-11.6&#10;&#9;&#9;&#9;&#9;c10.7-5.1,20.8-12.7,26.1-23.4c1.9-3.9,3.2-8,4.1-12.3C487.2,392.8,477.8,399.7,467.9,404.4z" style="fill: rgb(239, 179, 99);" transform="matrix(1, 0, 0, 1, -153.69863891601562, -273.10089111328125)"/><path class="st11" d="M446,283.2c-7.8-4.4-17.4-2.9-26.2-1.2c-20.6,4.2-41,9.4-60.5,17.3c-32.1,13-60.8,33-89.2,52.8&#10;&#9;&#9;&#9;&#9;c-18.5,12.9-37.3,26.1-51.2,44c-5.5,7.1-10.2,15.1-12.2,23.8c-2,8.8-1.1,18.5,4,25.9c5,7.5,13.4,11.9,21.5,15.8&#10;&#9;&#9;&#9;&#9;c19.6,9.7,39.5,18.8,59.6,27.2c5.2,2.2,10.4,4.3,16,4.9c4.8,0.5,9.6-0.2,14.4-1.1c34.4-6.3,66.5-21.5,96.8-38.8&#10;&#9;&#9;&#9;&#9;c9.3-5.3,18.7-11.1,25.4-19.4c7.5-9.3,11.1-21.2,13.5-33C466,362.7,472.4,305.5,446,283.2L446,283.2z" style="fill: rgb(242, 205, 117);" transform="matrix(1, 0, 0, 1, -153.69863891601562, -273.10089111328125)"/><path class="st12" d="M447.4,422.7c-6.7,8.4-16.1,14.1-25.4,19.4c-30.3,17.4-62.4,32.6-96.8,38.8c-4.7,0.9-9.6,1.6-14.4,1.1&#10;&#9;&#9;&#9;&#9;c-5.6-0.6-10.8-2.7-16-4.9c-20.1-8.5-40-17.6-59.6-27.2c-8.1-4-16.4-8.4-21.5-15.8c-4.1-6.1-5.5-13.7-4.7-21.1&#10;&#9;&#9;&#9;&#9;c-0.9,2.2-1.6,4.5-2.2,6.9c-2,8.8-1.1,18.5,4,25.9c5,7.5,13.4,11.9,21.5,15.8c19.6,9.7,39.5,18.8,59.6,27.2&#10;&#9;&#9;&#9;&#9;c5.2,2.2,10.4,4.3,16,4.9c4.8,0.5,9.6-0.2,14.4-1.1c34.4-6.3,66.5-21.5,96.8-38.8c9.3-5.3,18.7-11.1,25.4-19.4&#10;&#9;&#9;&#9;&#9;c7.5-9.3,11.1-21.2,13.5-33c0,0,0-0.1,0-0.1C455.7,409.1,452.4,416.5,447.4,422.7z" style="fill: rgb(239, 179, 99);" transform="matrix(1, 0, 0, 1, -153.69863891601562, -273.10089111328125)"/><path class="st11" d="M386.7,286.9c-20.5-4.8-41.8,2.5-61.2,10.6c-29.2,12.2-58.3,27.3-78.8,51.4c-7.9,9.3-14.6,21-12.7,33&#10;&#9;&#9;&#9;&#9;c1,6.5,4.5,12.5,8.4,17.8c9.4,13,21.6,23.7,33.7,34.3c14.8,13,29.6,26,44.5,39c6.5,5.7,13.2,11.5,21.4,13.9&#10;&#9;&#9;&#9;&#9;c10.2,3,21.2,0.4,31.5-2.5c19.7-5.5,41.2-13.6,50.4-31.9c6.4-12.9,5.2-28.1,3.7-42.5c-4.5-42.5-11.4-86.6-36-121.5L386.7,286.9z" style="fill: rgb(242, 205, 117);" transform="matrix(1, 0, 0, 1, -153.69863891601562, -273.10089111328125)"/><path class="st12" d="M377.6,472.2c-10.3,2.9-21.2,5.5-31.5,2.5c-8.2-2.4-15-8.3-21.4-13.9c-14.8-13-29.6-26-44.5-39&#10;&#9;&#9;&#9;&#9;c-12.1-10.6-24.3-21.3-33.7-34.3c-3.9-5.4-7.4-11.3-8.4-17.8c-0.4-2.9-0.4-5.7,0-8.5c-3.4,6.5-5.4,13.5-4.3,20.7&#10;&#9;&#9;&#9;&#9;c1,6.5,4.5,12.5,8.4,17.8c9.4,13,21.6,23.7,33.7,34.3c14.8,13,29.6,26,44.5,39c6.5,5.7,13.2,11.5,21.4,13.9&#10;&#9;&#9;&#9;&#9;c10.2,3,21.2,0.4,31.5-2.5c19.7-5.5,41.2-13.6,50.4-31.9c1.8-3.6,3-7.5,3.8-11.4C418.2,458.8,397.1,466.8,377.6,472.2z" style="fill: rgb(239, 179, 99);" transform="matrix(1, 0, 0, 1, -153.69863891601562, -273.10089111328125)"/><path class="st13" d="M391,310.5c-0.5,4,1.9,7.9,3.3,11.5c1.7,4.6,3.4,9.2,5.1,13.9c3.1,8.7,5.7,17.6,7.9,26.6&#10;&#9;&#9;&#9;&#9;c2.2,9,3.8,18.1,4.7,27.3c0.5,4.9,0.8,9.8,0.7,14.6c-0.1,5-0.9,9.9,0.2,14.9c1.7,7.5,12.6,7,14.6,0c1.4-4.9,0.6-9.9,0-14.9&#10;&#9;&#9;&#9;&#9;c-0.5-4.9-1-9.8-1.7-14.7c-1.4-9.7-3.5-19.3-6.1-28.8c-2.6-9.5-5.9-18.9-9.5-28.1c-1.7-4.5-3.6-8.9-5.6-13.2&#10;&#9;&#9;&#9;&#9;c-2-4.5-3.6-9.7-7.8-12.5C394.2,305.2,391.3,307.8,391,310.5L391,310.5z" style="fill: rgb(244, 223, 149);" transform="matrix(1, 0, 0, 1, -153.69863891601562, -273.10089111328125)"/><path class="st13" d="M434,293.8c6.1,3.7,8.2,8.7,11,15.2c3,6.9,5.2,14.1,6.9,21.4c3.5,14.7,4.1,29.9,3.5,44.9&#10;&#9;&#9;&#9;&#9;c-0.3,8.1,12.2,8.1,12.5,0c0.6-17.9-0.8-35.9-5.4-53.2c-2.2-8.3-5.3-16.3-9.4-23.9c-3.3-6.1-8.9-14.2-16.7-13.7&#10;&#9;&#9;&#9;&#9;C431.6,284.7,429.6,291.1,434,293.8L434,293.8z" style="fill: rgb(244, 223, 149);" transform="matrix(1, 0, 0, 1, -153.69863891601562, -273.10089111328125)"/><path class="st13" d="M472.7,304.2c4.3,2.5,6.8,4.2,7.4,9.7c0.5,5.6,0.7,11.1,0.7,16.7c0,6-1.3,11.8,0.4,17.6&#10;&#9;&#9;&#9;&#9;c1.3,4.3,6.9,4.9,9.2,1.2c4.6-7.2,3.2-18.4,2.9-26.6c-0.3-7.4-0.5-15-4.5-21.5c-3.2-5.2-10.3-9-16.1-5.6&#10;&#9;&#9;&#9;&#9;C469.5,297.5,469.5,302.3,472.7,304.2L472.7,304.2z" style="fill: rgb(244, 223, 149);" transform="matrix(1, 0, 0, 1, -153.69863891601562, -273.10089111328125)"/>
<g transform="matrix(1, 0, 0, 1, -153.69863891601562, -273.10089111328125)">
		<g>
			<g>
				<path d="M 958.200027 698.299988 A 246.300003 246.300003 0 0 1 711.900024 944.599991 A 246.300003 246.300003 0 0 1 465.600021 698.299988 A 246.300003 246.300003 0 0 1 711.900024 451.999985 A 246.300003 246.300003 0 0 1 958.200027 698.299988 Z" class="st2" style="fill: rgb(218, 219, 220);"/>
			</g>
			<g>
				<path d="M 936.700027 679.400024 A 246.300003 246.300003 0 0 1 690.400024 925.700027 A 246.300003 246.300003 0 0 1 444.100021 679.400024 A 246.300003 246.300003 0 0 1 690.400024 433.100021 A 246.300003 246.300003 0 0 1 936.700027 679.400024 Z" class="st5" style="fill: rgb(255, 255, 255);"/>
			</g>
			<g>
				<g>
					<path d="M 848.200027 679.400024 A 157.800003 157.800003 0 0 1 690.400024 837.200027 A 157.800003 157.800003 0 0 1 532.600021 679.400024 A 157.800003 157.800003 0 0 1 690.400024 521.600021 A 157.800003 157.800003 0 0 1 848.200027 679.400024 Z" class="st5" style="fill: rgb(255, 255, 255);"/>
				</g>
				<g>
					<path class="st14" d="M690.4,839.4c-88.2,0-159.9-71.8-159.9-159.9s71.8-159.9,159.9-159.9c88.2,0,159.9,71.8,159.9,159.9&#10;&#9;&#9;&#9;&#9;&#9;&#9;S778.6,839.4,690.4,839.4z M690.4,523.8c-85.8,0-155.6,69.8-155.6,155.6S604.6,835,690.4,835c85.8,0,155.6-69.8,155.6-155.6&#10;&#9;&#9;&#9;&#9;&#9;&#9;S776.2,523.8,690.4,523.8z" style="fill: rgb(207, 208, 208);"/>
				</g>
			</g>
		</g>
	</g><g transform="matrix(1, 0, 0, 1, -153.69863891601562, -273.10089111328125)">
			<g>
				<g>
					<path class="st15" d="M582.9,529.6c-12.2-12.6-33.5-12.1-48.2,1.3c-14.7,13.4-17.1,34.6-5.7,47.9L582.9,529.6z" style="fill: rgb(252, 192, 76);"/>
				</g>
				<g>
					<path class="st16" d="M528.9,579.7l-0.4-0.5c-11.7-13.7-9.2-35.1,5.8-48.8c7.5-6.8,16.8-10.5,26.4-10.5&#10;&#9;&#9;&#9;&#9;&#9;&#9;c8.9,0,16.9,3.3,22.7,9.3l0.4,0.5L528.9,579.7z M560.7,521.2c-9.2,0-18.3,3.6-25.5,10.2c-14.3,13-16.9,33.3-6.1,46.5l53-48.3&#10;&#9;&#9;&#9;&#9;&#9;&#9;C576.5,524.2,569,521.2,560.7,521.2z" style="fill: rgb(238, 174, 78);"/>
				</g>
			</g>
			<g>
				<path class="st17" d="M582.1,531.6c-11-11.3-30.8-10.4-44.7,2.3s-16.7,32.3-6.4,44.3L582.1,531.6z" style="fill: rgb(247, 241, 167);"/>
			</g>
		</g><g transform="matrix(1, 0, 0, 1, -153.69863891601562, -273.10089111328125)">
			<g>
				<path class="st18" d="M784.1,512c-21.4,0.1-38.7,17.5-38.7,38.9c0,21.4,17.3,38.8,38.7,38.9c21.4-0.1,38.7-17.5,38.7-38.9&#10;&#9;&#9;&#9;&#9;&#9;S805.5,512.1,784.1,512z" style="fill: rgb(240, 87, 86);"/>
			</g>
			<g>
				<g>
					<path class="st19" d="M786.4,553.6l-1.3,29.6c15.3-1.2,27.4-14.3,28.8-29.6H786.4z" style="fill: rgb(243, 128, 106);"/>
				</g>
			</g>
			<g>
				<path class="st19" d="M786.4,548.3l26.7-0.7c-1.3-15.5-12.6-27.8-28-28.9L786.4,548.3z" style="fill: rgb(243, 128, 106);"/>
			</g>
			<g>
				<path class="st19" d="M779.1,553.7l-24,0.6c1.2,14.6,12.8,26.6,26.7,28.9L779.1,553.7z" style="fill: rgb(243, 128, 106);"/>
			</g>
			<g>
				<path class="st19" d="M781.8,518.6c-13.8,2.3-25.3,14.2-26.6,28.6l24,0.9L781.8,518.6z" style="fill: rgb(243, 128, 106);"/>
			</g>
		</g><g transform="matrix(1, 0, 0, 1, -153.69863891601562, -273.10089111328125)">
				<path class="st20" d="M766.8,541.7c-1.5-1-2.6-2.4-3.3-4c-0.1-0.3-0.1-0.8,0.2-0.8c0.1,0,0.2,0,0.3,0.1c1.5,0.9,2.6,2.4,3.1,4" style="fill: rgb(245, 166, 136);"/>
			</g><path class="st20" d="M769.3,532.8c0.3,1,1.2,1.9,2.1,2.5c0.2,0.1,0.4,0.2,0.6,0.3s0.4,0,0.6-0.2c0.1-0.2,0.1-0.4,0-0.7&#10;&#9;&#9;&#9;&#9;&#9;c-0.2-0.7-0.5-1.4-1-2c-0.5-0.6-1.2-1-1.9-1" style="fill: rgb(245, 166, 136);" transform="matrix(1, 0, 0, 1, -153.69863891601562, -273.10089111328125)"/><path class="st20" d="M774.5,543.2c0.3-0.1,0.5-0.5,0.5-0.9c0-0.4-0.1-0.7-0.2-1c-0.1-0.4-0.2-0.9-0.5-1.2&#10;&#9;&#9;&#9;&#9;&#9;c-0.4-0.4-1.2-0.2-1.6-0.6c-0.1,1.1,0.2,2.2,0.8,3.1C773.7,543,774.1,543.4,774.5,543.2z" style="fill: rgb(245, 166, 136);" transform="matrix(1, 0, 0, 1, -153.69863891601562, -273.10089111328125)"/><path class="st20" d="M776.2,523.9c-0.5,0.5-0.6,1.3-0.8,2c-0.1,0.5-0.1,1,0.2,1.4c0.1,0.1,0.2,0.2,0.3,0.2&#10;&#9;&#9;&#9;&#9;&#9;c0.2,0,0.4-0.1,0.5-0.3c0.7-0.8,1.1-2,0.9-3.1c0-0.2-0.1-0.3-0.2-0.5C776.9,523.5,776.4,523.6,776.2,523.9z" style="fill: rgb(245, 166, 136);" transform="matrix(1, 0, 0, 1, -153.69863891601562, -273.10089111328125)"/><g transform="matrix(1, 0, 0, 1, -153.69863891601562, -273.10089111328125)">
				<path class="st20" d="M795.1,541.4c-1.4,1.1-3.1,1.7-4.9,1.8c-0.3,0-0.8-0.1-0.7-0.4c0-0.1,0.1-0.2,0.2-0.2&#10;&#9;&#9;&#9;&#9;&#9;c1.3-1.1,3.1-1.7,4.8-1.6" style="fill: rgb(245, 166, 136);"/>
			</g><path class="st20" d="M795,535.8c1.1,0,2.1-0.5,3-1.2c0.2-0.1,0.3-0.3,0.4-0.4c0.1-0.2,0.1-0.4,0-0.6c-0.1-0.2-0.4-0.2-0.6-0.2&#10;&#9;&#9;&#9;&#9;&#9;c-0.7,0-1.5,0-2.2,0.3c-0.7,0.3-1.3,0.8-1.5,1.5" style="fill: rgb(245, 166, 136);" transform="matrix(1, 0, 0, 1, -153.69863891601562, -273.10089111328125)"/><path class="st20" d="M805.3,541.6c0.1-0.4-0.2-0.7-0.5-0.8c-0.3-0.1-0.7-0.2-1-0.2c-0.4-0.1-0.9-0.2-1.3-0.1&#10;&#9;&#9;&#9;&#9;&#9;c-0.5,0.2-0.7,0.9-1.2,1.2c0.9,0.5,2,0.7,3.1,0.6C804.7,542.3,805.2,542.1,805.3,541.6z" style="fill: rgb(245, 166, 136);" transform="matrix(1, 0, 0, 1, -153.69863891601562, -273.10089111328125)"/><path class="st20" d="M790.4,524.8c-0.5,0.5-0.6,1.3-0.8,2c-0.1,0.5-0.1,1,0.2,1.4c0.1,0.1,0.2,0.2,0.3,0.2&#10;&#9;&#9;&#9;&#9;&#9;c0.2,0,0.4-0.1,0.5-0.3c0.7-0.8,1.1-2,0.9-3.1c0-0.2-0.1-0.3-0.2-0.5C791.1,524.4,790.6,524.6,790.4,524.8z" style="fill: rgb(245, 166, 136);" transform="matrix(1, 0, 0, 1, -153.69863891601562, -273.10089111328125)"/><g transform="matrix(1, 0, 0, 1, -153.69863891601562, -273.10089111328125)">
				<path class="st20" d="M799.3,558.1c1.5,1,2.6,2.4,3.3,4c0.1,0.3,0.1,0.8-0.2,0.8c-0.1,0-0.2,0-0.3-0.1c-1.5-0.9-2.6-2.4-3.1-4" style="fill: rgb(245, 166, 136);"/>
			</g><path class="st20" d="M796.8,567c-0.3-1-1.2-1.9-2.1-2.5c-0.2-0.1-0.4-0.2-0.6-0.3c-0.2,0-0.4,0-0.6,0.2c-0.1,0.2-0.1,0.4,0,0.7&#10;&#9;&#9;&#9;&#9;&#9;c0.2,0.7,0.5,1.4,1,2c0.5,0.6,1.2,1,1.9,1" style="fill: rgb(245, 166, 136);" transform="matrix(1, 0, 0, 1, -153.69863891601562, -273.10089111328125)"/><path class="st20" d="M791.6,556.5c-0.3,0.1-0.5,0.5-0.5,0.9s0.1,0.7,0.2,1c0.1,0.4,0.2,0.9,0.5,1.2c0.4,0.4,1.2,0.2,1.6,0.6&#10;&#9;&#9;&#9;&#9;&#9;c0.1-1.1-0.2-2.2-0.8-3.1C792.4,556.8,792,556.4,791.6,556.5z" style="fill: rgb(245, 166, 136);" transform="matrix(1, 0, 0, 1, -153.69863891601562, -273.10089111328125)"/><path class="st20" d="M789.9,575.8c0.5-0.5,0.6-1.3,0.8-2c0.1-0.5,0.1-1-0.2-1.4c-0.1-0.1-0.2-0.2-0.3-0.2&#10;&#9;&#9;&#9;&#9;&#9;c-0.2,0-0.4,0.1-0.5,0.3c-0.7,0.8-1.1,2-0.9,3.1c0,0.2,0.1,0.3,0.2,0.5C789.2,576.3,789.7,576.1,789.9,575.8z" style="fill: rgb(245, 166, 136);" transform="matrix(1, 0, 0, 1, -153.69863891601562, -273.10089111328125)"/><g transform="matrix(1, 0, 0, 1, -153.69863891601562, -273.10089111328125)">
				<path class="st20" d="M771,558.3c1.4-1.1,3.1-1.7,4.9-1.8c0.3,0,0.8,0.1,0.7,0.4c0,0.1-0.1,0.2-0.2,0.2&#10;&#9;&#9;&#9;&#9;&#9;c-1.3,1.1-3.1,1.7-4.8,1.6" style="fill: rgb(245, 166, 136);"/>
			</g><path class="st20" d="M771.1,564c-1.1,0-2.1,0.5-3,1.2c-0.2,0.1-0.3,0.3-0.4,0.4c-0.1,0.2-0.1,0.4,0,0.6&#10;&#9;&#9;&#9;&#9;&#9;c0.1,0.2,0.4,0.2,0.6,0.2c0.7,0,1.5,0,2.2-0.3c0.7-0.3,1.3-0.8,1.5-1.5" style="fill: rgb(245, 166, 136);" transform="matrix(1, 0, 0, 1, -153.69863891601562, -273.10089111328125)"/><path class="st20" d="M760.9,558.1c-0.1,0.4,0.2,0.7,0.5,0.8c0.3,0.1,0.7,0.2,1,0.2c0.4,0.1,0.9,0.2,1.3,0.1&#10;&#9;&#9;&#9;&#9;&#9;c0.5-0.2,0.7-0.9,1.2-1.2c-0.9-0.5-2-0.7-3.1-0.6C761.4,557.5,760.9,557.7,760.9,558.1z" style="fill: rgb(245, 166, 136);" transform="matrix(1, 0, 0, 1, -153.69863891601562, -273.10089111328125)"/><path class="st20" d="M775.7,574.9c0.5-0.5,0.6-1.3,0.8-2c0.1-0.5,0.1-1-0.2-1.4c-0.1-0.1-0.2-0.2-0.3-0.2&#10;&#9;&#9;&#9;&#9;&#9;c-0.2,0-0.4,0.1-0.5,0.3c-0.7,0.8-1.1,2-0.9,3.1c0,0.2,0.1,0.3,0.2,0.5C775,575.4,775.5,575.2,775.7,574.9z" style="fill: rgb(245, 166, 136);" transform="matrix(1, 0, 0, 1, -153.69863891601562, -273.10089111328125)"/><g transform="matrix(1, 0, 0, 1, -153.69863891601562, -273.10089111328125)">
			<path class="st21" d="M917.1,661.3c-2.4-9.4-8.4-17.4-16.7-22.3c-2.9-1.7-6.3-3.2-10.2-4.4c2.8-2.9,5.1-5.9,6.8-8.8&#10;&#9;&#9;&#9;&#9;c5-8.4,6.4-18.2,4-27.6c-2.4-9.4-8.4-17.4-16.7-22.3c-5.6-3.3-12.1-5.1-18.6-5.1c-12.8,0-24.9,6.9-31.4,17.9&#10;&#9;&#9;&#9;&#9;c-4.6,7.7-7.5,19.2-7.6,30.2l-46,11.8c-4-4.5-8.6-7.6-13.6-7.6c-1,0-2,0.1-3,0.4c-1.2,0.3-2.6,0.5-4.2,0.5&#10;&#9;&#9;&#9;&#9;c-11.8,0-31.1-8.3-53.5-18c-30.6-13.2-65.3-28.2-95.2-28.2c-6.3,0-12.3,0.7-17.7,2.1c-32.8,8.4-60.3,29-77.6,58.1&#10;&#9;&#9;&#9;&#9;c-17.2,29.1-22.1,63.2-13.7,95.9c14.4,56.1,64.8,95.3,122.6,95.3c10.6,0,21.2-1.3,31.5-4c29.7-7.6,51.4-36.8,72.4-65&#10;&#9;&#9;&#9;&#9;c19.3-25.9,37.5-50.4,59.9-56.2c5.2-1.3,8.4-5.9,9.5-13.7l44-11.3c5.4,9.6,13.5,18.3,21.2,22.8c5.6,3.3,12.1,5.1,18.6,5.1&#10;&#9;&#9;&#9;&#9;c12.8,0,24.9-6.9,31.4-17.9C918.1,680.6,919.5,670.8,917.1,661.3z" style="fill: rgb(218, 218, 218);"/>
		</g><g transform="matrix(1, 0, 0, 1, -153.69863891601562, -273.10089111328125)">
				<g>
					<path class="st22" d="M822.2,606.4l-126,32.2c-5.3-9.8-13.4-18.7-21.2-23.3c-16.6-9.8-38-4.3-47.8,12.2&#10;&#9;&#9;&#9;&#9;&#9;&#9;c-9.8,16.6-4.3,38,12.2,47.8c3.5,2.1,7.8,3.8,12.4,5c-3.5,3.3-6.4,6.9-8.5,10.4c-9.8,16.6-4.3,38,12.2,47.8&#10;&#9;&#9;&#9;&#9;&#9;&#9;c16.6,9.8,38,4.3,47.8-12.2c4.6-7.8,7.4-19.5,7.4-30.6l126-32.2c5.3,9.8,13.4,18.7,21.2,23.3c16.6,9.8,38,4.3,47.8-12.2&#10;&#9;&#9;&#9;&#9;&#9;&#9;c9.8-16.6,4.3-38-12.2-47.8c-3.5-2.1-7.8-3.8-12.4-5c3.5-3.3,6.4-6.9,8.5-10.4c9.8-16.6,4.3-38-12.2-47.8&#10;&#9;&#9;&#9;&#9;&#9;&#9;c-16.6-9.8-38-4.3-47.8,12.2C825,583.6,822.2,595.2,822.2,606.4z" style="fill: rgb(255, 212, 153);"/>
				</g>
				<g>
					<path class="st23" d="M656.6,691.6c-13,4-9.4,29.7-3.6,35s15.3,5.9,22.2,2s11.3-11.6,11.9-19.5c0.2-3.1-0.1-6.3-0.4-9.4&#10;&#9;&#9;&#9;&#9;&#9;&#9;c-0.3-2.7-0.5-5.3-0.8-8c-0.2-1.6-0.4-3.4-1.8-4.2C682.8,686.7,671.3,687.1,656.6,691.6z" style="fill: rgb(253, 234, 209);"/>
				</g>
				<g>
					<path class="st23" d="M632.1,648.9c5,15.5,23.4,23.7,48.3,16.7l39.1-10c3.5-0.9,5.5-4.4,4.7-7.9l0,0c-0.9-3.5-4.4-5.5-7.9-4.7&#10;&#9;&#9;&#9;&#9;&#9;&#9;l-29.8,7.6c-5.5,1.4-11-1.7-13.1-7c0,0,0,0,0-0.1c-1.2-2.9-2.5-5.8-4.2-8.4c-4.5-7-12.5-11.8-20.8-11.4&#10;&#9;&#9;&#9;&#9;&#9;&#9;C636,624.4,628.3,637.2,632.1,648.9z" style="fill: rgb(253, 234, 209);"/>
				</g>
			</g><path class="st24" d="M588.3,569.2c54.6-14,142.4,50.8,170.5,43.6c12.5-3.2,34.1,3.7,41.8,29.5c7.6,25.8-7.2,41.9-18.7,44.9&#10;&#9;&#9;&#9;&#9;&#9;c-48.6,12.4-76.9,107-132.3,121.2c-66.1,16.9-133.3-22.9-150.2-89S522.2,586.1,588.3,569.2z" style="fill: rgb(208, 122, 40);" transform="matrix(1, 0, 0, 1, -153.69863891601562, -273.10089111328125)"/><g transform="matrix(1, 0, 0, 1, -153.69863891601562, -273.10089111328125)">
					<path class="st25" d="M597.9,778.6c-1.7,0-3.3-0.9-4.1-2.4l-67.2-115.3c-1.3-2.3-0.6-5.2,1.7-6.6c2.3-1.3,5.2-0.6,6.6,1.7&#10;&#9;&#9;&#9;&#9;&#9;&#9;L602,771.4c1.3,2.3,0.6,5.2-1.7,6.6C599.5,778.4,598.7,778.6,597.9,778.6z" style="fill: rgb(159, 80, 20);"/>
				</g><path class="st25" d="M548,762.9c-1.6,0-3.2-0.8-4.1-2.3l-27.7-45.8c-1.4-2.3-0.6-5.2,1.6-6.6c2.3-1.4,5.2-0.6,6.6,1.6&#10;&#9;&#9;&#9;&#9;&#9;&#9;l27.7,45.8c1.4,2.3,0.6,5.2-1.6,6.6C549.7,762.7,548.8,762.9,548,762.9z" style="fill: rgb(159, 80, 20);" transform="matrix(1, 0, 0, 1, -153.69863891601562, -273.10089111328125)"/><path class="st25" d="M635.5,785.1c-1.7,0-3.3-0.9-4.2-2.4l-92.9-163.4c-1.3-2.3-0.5-5.2,1.8-6.5s5.2-0.5,6.5,1.8l92.9,163.4&#10;&#9;&#9;&#9;&#9;&#9;&#9;c1.3,2.3,0.5,5.2-1.8,6.5C637.1,784.9,636.3,785.1,635.5,785.1z" style="fill: rgb(159, 80, 20);" transform="matrix(1, 0, 0, 1, -153.69863891601562, -273.10089111328125)"/><path class="st25" d="M667.2,769.6c-1.6,0-3.2-0.8-4.1-2.3l-99.4-163.2c-1.4-2.3-0.7-5.2,1.6-6.6c2.3-1.4,5.2-0.7,6.6,1.6&#10;&#9;&#9;&#9;&#9;&#9;&#9;l99.4,163.2c1.4,2.3,0.7,5.2-1.6,6.6C668.9,769.4,668.1,769.6,667.2,769.6z" style="fill: rgb(159, 80, 20);" transform="matrix(1, 0, 0, 1, -153.69863891601562, -273.10089111328125)"/><path class="st25" d="M685.6,739.8c-1.6,0-3.2-0.8-4.1-2.3l-85.2-140.8c-1.4-2.3-0.6-5.2,1.6-6.6c2.3-1.4,5.2-0.6,6.6,1.6&#10;&#9;&#9;&#9;&#9;&#9;&#9;l85.2,140.8c1.4,2.3,0.6,5.2-1.6,6.6C687.3,739.5,686.4,739.8,685.6,739.8z" style="fill: rgb(159, 80, 20);" transform="matrix(1, 0, 0, 1, -153.69863891601562, -273.10089111328125)"/><path class="st25" d="M703.9,709.8c-1.6,0-3.2-0.8-4.1-2.3l-68.5-113.3c-1.4-2.3-0.6-5.2,1.6-6.6c2.3-1.4,5.2-0.6,6.6,1.6&#10;&#9;&#9;&#9;&#9;&#9;&#9;L708,702.5c1.4,2.3,0.6,5.2-1.6,6.6C705.6,709.5,704.7,709.8,703.9,709.8z" style="fill: rgb(159, 80, 20);" transform="matrix(1, 0, 0, 1, -153.69863891601562, -273.10089111328125)"/><path class="st25" d="M716.9,671.3c-1.6,0-3.2-0.8-4.1-2.3l-45-73.9c-1.4-2.3-0.7-5.2,1.6-6.6c2.3-1.4,5.2-0.7,6.6,1.6l45,73.9&#10;&#9;&#9;&#9;&#9;&#9;&#9;c1.4,2.3,0.7,5.2-1.6,6.6C718.6,671.1,717.8,671.3,716.9,671.3z" style="fill: rgb(159, 80, 20);" transform="matrix(1, 0, 0, 1, -153.69863891601562, -273.10089111328125)"/><path class="st26" d="M640.1,461.6c-4.2-1.8-9,1.8-7.3,5.6c0,0,0,0.1,0,0.1c1.3,2.7,3.9,4.8,6.5,6.7c16.5,12,35.6,21.3,56,27.2&#10;&#9;&#9;&#9;c-24.3-5.1-48.7-10.3-73-15.4c-11.8-2.5-24.1-5-35.8-1.6c-1.6,0.5-2.9,1.6-3.2,3.1c-0.6,2.5,2,3.9,4.3,4.8&#10;&#9;&#9;&#9;c30.2,12.1,63.5,15.5,97,15.9c-21.2,1.7-42.3,5.6-62.4,11.8c-2.9,0.9-6.2,2.4-6.3,5.1c-0.1,1.4,0.8,2.6,1.9,3.6&#10;&#9;&#9;&#9;c5.7,5.1,15.2,3.4,23,1.3c21.7-5.8,86.3-16.9,102.4-21.2c3-0.8,10.3-0.5,7.4-1.1C710.9,499.7,667.6,473.8,640.1,461.6z" style="fill: rgb(57, 181, 74);" transform="matrix(1, 0, 0, 1, -153.69863891601562, -273.10089111328125)"/><path class="st26" d="M841.3,853.1c1.6-0.4,2.9-1.6,3.2-3c0.6-2.5-2-3.9-4.2-4.8c-30.1-12.5-63.3-16.4-96.7-17.3&#10;&#9;&#9;&#9;c21.3-1.4,42.3-5.1,62.6-11c2.9-0.8,6.3-2.3,6.4-5c0.1-1.4-0.8-2.6-1.9-3.6c-5.6-5.2-15.2-3.6-23-1.6&#10;&#9;&#9;&#9;c-21.8,5.5-86.5,15.8-102.7,19.8c-3,0.8-10.4,0.7-7.4,1C735.2,832.8,829.6,856.2,841.3,853.1z" style="fill: rgb(57, 181, 74);" transform="matrix(1, 0, 0, 1, -153.69863891601562, -273.10089111328125)"/><path class="st24" d="M784.6,653.5c1.5,2.6,1.3,5.6,0,8.2c-0.1,0.2,0.2,0.4,0.3,0.2c1.8-2.6,1.7-6,0.1-8.7&#10;&#9;&#9;&#9;C784.9,652.9,784.4,653.2,784.6,653.5L784.6,653.5z" style="fill: rgb(208, 122, 40);" transform="matrix(1, 0, 0, 1, -153.69863891601562, -273.10089111328125)"/><path class="st27" d="M780.2,634.4c-2.4,6.1,1.7,12.9,1.4,19.4c-0.2,6-5.6,10.6-10.1,13.8c-5.2,3.5-10.8,6.4-16,9.9&#10;&#9;&#9;&#9;c-5.5,3.7-10.8,7.8-15.9,12.1c-10.3,8.6-19.5,18.4-28.2,28.5c-4.4,5.1-8.7,10.3-12.8,15.6c-4.1,5.2-8.9,10.4-12,16.3&#10;&#9;&#9;&#9;c-3.4,6.4,4.6,12.6,9.9,7.7c5.3-4.9,9.3-11.3,13.8-17c4.5-5.7,9.2-11.4,14-16.9c9.5-10.9,19.8-21.3,31.2-30.1&#10;&#9;&#9;&#9;c10.4-7.9,24.5-13.1,32.6-23.6c4.3-5.6,5.8-12.6,4.9-19.5c-0.8-6.2-2.6-14.9-8.7-17.7C782.4,632,780.8,632.7,780.2,634.4&#10;&#9;&#9;&#9;L780.2,634.4z" style="fill: rgb(223, 154, 56);" transform="matrix(1, 0, 0, 1, -153.69863891601562, -273.10089111328125)"/><g transform="matrix(1, 0, 0, 1, -153.69863891601562, -273.10089111328125)">
			<path class="st26" d="M850.5,738.3c6.4-3.3,14.2-9,17.7-15.2s6.3-12.9,10-19c1.4-2.3,4.3-4.7,6.4-3.1c1.4,1.1,1.2,3.2,0.8,5&#10;&#9;&#9;&#9;&#9;c-1.1,4.6-2.9,8.9-5.4,12.9c0.7,0.9,2.1,0,2.9-0.8c3.4-3.7,7.6-6.6,12.2-8.5c4.5-1.9,9.8-2.8,14-0.3c-6.1,4-12.2,8-18.3,12&#10;&#9;&#9;&#9;&#9;c-0.8,0.5-1.7,1.2-1.9,2.1c-0.3,1.3,1,2.6,2.3,2.9c1.4,0.2,2.7-0.2,4-0.7c4.7-1.6,9.7-2.5,14.7-2.8c2.9-0.2,6-0.1,8.5,1.5&#10;&#9;&#9;&#9;&#9;c2.5,1.6,3.8,5.1,2.2,7.5c-1.3,1.9-3.8,2.3-6.1,2.6c-20.8,2.8-42.3,3.9-61.8,11.5" style="fill: rgb(57, 181, 74);"/>
		</g><path class="st28" d="M850.2,730.9c-37.8-20.7-101.8,16.1-139,46.1c-5.7,4.6-2.6,13.7,4.6,14c48.1,1.8,145,0.9,144.1-42.5&#10;&#9;&#9;&#9;&#9;C859.8,742.4,856.6,734.4,850.2,730.9z" style="fill: rgb(244, 125, 72);" transform="matrix(1, 0, 0, 1, -153.69863891601562, -273.10089111328125)"/><g transform="matrix(1, 0, 0, 1, -153.69863891601562, -273.10089111328125)">
				<path class="st29" d="M832.4,732c-4.6,3.8-7.2,9.3-9,14.9c-1.5,4.6-3.8,11.5-1.5,16.1c0.3,0.5,1.1,0.3,1.1-0.3&#10;&#9;&#9;&#9;&#9;&#9;c-0.4-10.9,3.6-21.6,10.1-30.2C833.4,732.1,832.8,731.7,832.4,732L832.4,732z" style="fill: rgb(196, 91, 55);"/>
			</g><path class="st29" d="M813.3,738.4c-5.2,7.6-9.5,18.1-8,27.5c0.1,0.6,1,0.5,1.1,0c0.8-4.4,1-8.8,2.1-13.2&#10;&#9;&#9;&#9;&#9;&#9;c1.2-4.8,3.3-9.5,5.6-13.8C814.5,738.3,813.7,737.9,813.3,738.4L813.3,738.4z" style="fill: rgb(196, 91, 55);" transform="matrix(1, 0, 0, 1, -153.69863891601562, -273.10089111328125)"/><path class="st29" d="M794.3,745.9c0-0.1,0-0.2,0.1-0.2c0-0.1,0-0.3-0.1-0.3c-0.1-0.1-0.1-0.1-0.2-0.2c-0.2-0.1-0.4-0.2-0.5-0.1&#10;&#9;&#9;&#9;&#9;&#9;c-3.2,1.9-4.1,8.7-4.8,11.9c-1,5.1-1.3,10.9,0.5,15.8c0.2,0.7,1.2,0.6,1.2-0.2c0.1-4-0.3-7.9,0-11.9c0.2-2.7,0.8-5.5,1.5-8.1&#10;&#9;&#9;&#9;&#9;&#9;c0.4-1.6,2.4-5.1,1.8-6.7C793.8,746.2,794.2,746.2,794.3,745.9L794.3,745.9z" style="fill: rgb(196, 91, 55);" transform="matrix(1, 0, 0, 1, -153.69863891601562, -273.10089111328125)"/><path class="st29" d="M770.9,755c-3.8,5.2-6.2,13.9-3.2,20c0.3,0.6,1,0.2,1.1-0.3c0.2-3.3-0.3-6.5,0.2-9.8&#10;&#9;&#9;&#9;&#9;&#9;c0.4-3.3,1.7-6.4,3.1-9.4C772.3,754.9,771.3,754.4,770.9,755L770.9,755z" style="fill: rgb(196, 91, 55);" transform="matrix(1, 0, 0, 1, -153.69863891601562, -273.10089111328125)"/><path class="st29" d="M752.8,763.4c-2.4,0.8-3.2,4-3.6,6.2c-0.5,2.4-0.1,5.4,1.5,7.3c0.3,0.4,1,0.1,0.9-0.4&#10;&#9;&#9;&#9;&#9;&#9;c-0.1-2.4-0.6-4.6-0.3-7.1c0.3-2,1.7-3.7,1.8-5.7C753.2,763.5,753,763.3,752.8,763.4L752.8,763.4z" style="fill: rgb(196, 91, 55);" transform="matrix(1, 0, 0, 1, -153.69863891601562, -273.10089111328125)"/>

</svg>